<?xml version="1.0" standalone="no"?>
<!DOCTYPE svg PUBLIC "-//W3C//DTD SVG 20010904//EN"
 "http://www.w3.org/TR/2001/REC-SVG-20010904/DTD/svg10.dtd">
<svg version="1.0" xmlns="http://www.w3.org/2000/svg"
 width="324.000000pt" height="324.000000pt" viewBox="0 0 324.000000 324.000000"
 preserveAspectRatio="xMidYMid meet">
<metadata>
Created by potrace 1.11, written by Peter Selinger 2001-2013
</metadata>
<g transform="translate(0.000000,324.000000) scale(0.100000,-0.100000)"
fill="#000000" stroke="none">
<path d="M2545 2709 c-207 -31 -355 -153 -431 -354 -6 -16 -9 -13 -15 20 -5
22 -9 74 -11 115 -3 111 31 163 115 177 80 12 30 23 -111 23 l-148 0 -334
-776 c-183 -426 -336 -771 -340 -767 -4 4 -156 353 -340 776 l-333 767 -178 0
c-169 0 -227 -10 -141 -24 60 -9 103 -45 138 -112 29 -56 31 -65 22 -115 -5
-30 -11 -70 -13 -89 -42 -328 -72 -520 -81 -520 -16 0 -142 -150 -207 -248
-103 -155 -132 -304 -79 -409 25 -49 101 -118 149 -135 l35 -13 -7 -55 c-15
-128 -40 -170 -100 -170 -19 0 -35 -4 -35 -10 0 -6 80 -10 220 -10 121 0 220
4 220 8 0 4 -15 12 -32 17 -32 10 -33 12 -36 70 -6 108 -17 101 175 108 103 4
215 14 288 28 66 11 126 22 134 23 8 0 34 -47 69 -127 31 -70 60 -126 66 -124
6 2 40 71 76 153 36 82 69 154 73 161 4 6 53 26 110 43 56 18 175 59 265 92
90 33 165 59 167 57 2 -3 17 -100 34 -217 33 -236 32 -258 -19 -268 -16 -4
-30 -11 -30 -16 0 -7 140 -8 398 -5 497 6 608 20 709 88 56 39 108 102 143
174 73 149 61 409 -23 543 -37 58 -138 155 -192 183 -25 13 -45 27 -45 30 0 3
24 21 53 40 28 18 112 78 185 133 105 79 132 104 132 123 0 22 -6 19 -77 -37
-88 -69 -286 -211 -321 -229 -19 -10 -35 -8 -100 17 -42 16 -126 46 -187 66
-60 20 -130 47 -155 59 l-45 22 0 70 c0 85 28 147 93 207 75 69 119 83 257 83
109 0 125 -3 178 -27 35 -17 86 -54 128 -94 38 -37 69 -63 69 -58 0 5 -16 50
-36 100 l-37 92 -86 16 c-135 24 -190 28 -271 16 -175 -25 -305 -132 -356
-294 l-18 -58 -28 33 c-44 53 -61 118 -56 218 6 111 38 180 120 256 77 72 144
97 272 103 176 8 281 -32 409 -156 42 -42 77 -71 77 -65 0 10 -79 225 -84 231
-2 1 -48 11 -102 21 -125 24 -261 32 -339 20z m-1989 -463 l33 -71 -83 -575
-82 -575 -45 3 c-24 2 -47 6 -52 11 -6 6 151 1193 168 1269 8 34 24 18 61 -62z
m1283 -527 c28 -202 51 -371 51 -376 0 -6 -53 -31 -117 -56 -118 -45 -395
-139 -398 -134 -1 1 78 187 176 412 98 226 189 437 203 469 14 33 28 57 30 55
3 -2 27 -169 55 -370z m-985 -158 c185 -424 212 -491 204 -491 -2 0 -36 -7
-77 -15 -142 -30 -476 -57 -493 -40 -2 3 28 233 68 512 41 280 74 515 74 523
1 13 2 13 9 0 5 -8 102 -228 215 -489z m1427 244 c35 -33 77 -78 92 -98 16
-21 46 -51 68 -66 l39 -29 -124 -63 c-69 -35 -127 -61 -130 -58 -5 5 -66 415
-66 443 0 5 13 -9 29 -30 15 -21 57 -66 92 -99z m-1972 -305 c-21 -151 -43
-312 -50 -357 l-11 -81 -28 9 c-42 15 -108 76 -131 122 -17 33 -20 54 -17 116
3 63 10 90 41 155 21 44 58 107 82 141 44 62 145 178 150 173 1 -2 -15 -127
-36 -278z m2259 74 c20 -8 93 -36 162 -61 158 -57 223 -90 281 -142 61 -53 73
-84 67 -174 -14 -216 -221 -369 -478 -354 -134 7 -236 52 -293 129 -14 19 -26
78 -49 249 -17 123 -27 224 -22 226 5 2 68 34 139 73 72 38 136 69 143 69 7 1
29 -6 50 -15z m-2155 -593 c8 -8 -7 -102 -24 -143 -16 -39 -40 -44 -66 -13
-24 27 -27 52 -17 129 l7 47 46 -7 c25 -3 49 -9 54 -13z"/>
</g>
</svg>
